<svg width="91" height="33" viewBox="0 0 91 33" fill="none" xmlns="http://www.w3.org/2000/svg">
<path d="M19.9994 2.62896L27.3761 15.3766C27.7784 16.0719 27.7784 16.9285 27.3761 17.6238L19.9994 30.3714C19.5971 31.0667 18.8535 31.495 18.0488 31.495H22.3717C23.1764 31.495 23.92 31.0667 24.3223 30.3714L31.699 17.6238C32.1013 16.9285 32.1013 16.0719 31.699 15.3766L24.3223 2.62896C23.92 1.93366 23.1763 1.50537 22.3717 1.50537H18.0488C18.8535 1.50537 19.5971 1.93366 19.9994 2.62896Z" fill="#39435A"/>
<path d="M19.9994 2.62896L20.328 3.19697C20.8867 3.20512 21.467 3.25091 22.0592 3.33777C23.2377 3.51074 24.3241 3.826 25.2523 4.23638L24.3221 2.62896C23.92 1.93366 23.1764 1.50537 22.3717 1.50537H18.0488C18.8535 1.50537 19.5971 1.93366 19.9994 2.62896Z" fill="#2C374C"/>
<path d="M11.6771 2.62896L19.0538 15.3766C19.4561 16.0719 19.4561 16.9285 19.0538 17.6238L11.6771 30.3714C11.2748 31.0667 10.5313 31.495 9.72656 31.495H14.0495C14.8542 31.495 15.5977 31.0667 16 30.3714L23.3767 17.6238C23.779 16.9285 23.779 16.0719 23.3767 15.3766L16 2.62896C15.5976 1.93366 14.8541 1.50537 14.0494 1.50537H9.72656C10.5312 1.50537 11.2747 1.93366 11.6771 2.62896Z" fill="#39435A"/>
<path d="M12.0014 30.3712L4.62463 17.6235C4.22234 16.9282 4.22234 16.0717 4.62463 15.3764L12.0014 2.62871C12.4036 1.93342 13.1472 1.50513 13.9519 1.50513H9.62897C8.82427 1.50513 8.08073 1.93342 7.67844 2.62871L0.30172 15.3764C-0.100573 16.0717 -0.100573 16.9282 0.30172 17.6235L7.67844 30.3712C8.08073 31.0665 8.82427 31.4948 9.62897 31.4948H13.9519C13.1472 31.4948 12.4036 31.0665 12.0014 30.3712Z" fill="#435F94"/>
<path d="M16.2632 30.3712L8.88648 17.6236C8.48418 16.9283 8.48418 16.0717 8.88648 15.3764L16.2632 2.62874C16.6655 1.93366 17.409 1.50537 18.2137 1.50537H13.8908C13.0861 1.50537 12.3426 1.93366 11.9403 2.62896L4.56356 15.3766C4.16127 16.0719 4.16127 16.9285 4.56356 17.6238L11.9403 30.3714C12.3426 31.0667 13.0861 31.495 13.8908 31.495H18.2137C17.409 31.4948 16.6655 31.0665 16.2632 30.3712Z" fill="#377DFF"/>
<path d="M20.6068 30.3712L13.2301 17.6236C12.8278 16.9283 12.8278 16.0717 13.2301 15.3764L20.6068 2.62874C21.0091 1.93366 21.7527 1.50537 22.5574 1.50537H18.2344C17.4297 1.50537 16.6862 1.93366 16.2839 2.62896L8.90719 15.3766C8.5049 16.0719 8.5049 16.9285 8.90719 17.6238L16.2839 30.3714C16.6862 31.0667 17.4297 31.495 18.2344 31.495H22.5574C21.7527 31.4948 21.0091 31.0665 20.6068 30.3712Z" fill="#37DBFF"/>
<path d="M44.6487 6.398L41.6247 13.51C41.5594 13.6873 41.4567 13.8273 41.3167 13.93C41.1861 14.0233 41.0414 14.07 40.8827 14.07C40.6307 14.07 40.4441 14 40.3227 13.86C40.2014 13.72 40.1407 13.5473 40.1407 13.342C40.1407 13.258 40.1547 13.1693 40.1827 13.076L43.6687 4.704C43.7434 4.51733 43.8554 4.37267 44.0047 4.27C44.1634 4.16733 44.3314 4.12533 44.5087 4.144C44.6767 4.144 44.8307 4.19533 44.9707 4.298C45.1201 4.39133 45.2274 4.52667 45.2927 4.704L48.7367 12.908C48.7834 13.0293 48.8067 13.1413 48.8067 13.244C48.8067 13.496 48.7227 13.6967 48.5547 13.846C48.3961 13.9953 48.2187 14.07 48.0227 14.07C47.8547 14.07 47.7007 14.0187 47.5607 13.916C47.4301 13.8133 47.3274 13.6733 47.2527 13.496L44.2427 6.482L44.6487 6.398ZM42.0587 11.802L42.8287 10.192H46.6087L46.8747 11.802H42.0587ZM53.1001 6.37C53.4921 6.37 53.8515 6.43067 54.1781 6.552C54.5048 6.67333 54.7848 6.82733 55.0181 7.014C55.2608 7.20067 55.4475 7.392 55.5781 7.588C55.7181 7.77467 55.7881 7.93333 55.7881 8.064L55.4241 8.246V7.224C55.4241 6.98133 55.5035 6.78067 55.6621 6.622C55.8208 6.454 56.0215 6.37 56.2641 6.37C56.5068 6.37 56.7075 6.44933 56.8661 6.608C57.0248 6.76667 57.1041 6.972 57.1041 7.224V13.454C57.1041 14.266 56.9268 14.9147 56.5721 15.4C56.2268 15.8947 55.7695 16.2493 55.2001 16.464C54.6308 16.688 54.0195 16.8 53.3661 16.8C53.1795 16.8 52.9368 16.7767 52.6381 16.73C52.3395 16.6833 52.0548 16.6273 51.7841 16.562C51.5135 16.4967 51.3081 16.436 51.1681 16.38C50.8881 16.2587 50.6921 16.1047 50.5801 15.918C50.4775 15.7407 50.4588 15.5493 50.5241 15.344C50.6081 15.0733 50.7435 14.8867 50.9301 14.784C51.1168 14.6907 51.3128 14.6813 51.5181 14.756C51.6115 14.784 51.7655 14.84 51.9801 14.924C52.1948 15.008 52.4281 15.0827 52.6801 15.148C52.9415 15.2227 53.1701 15.26 53.3661 15.26C54.0661 15.26 54.5841 15.12 54.9201 14.84C55.2561 14.56 55.4241 14.1727 55.4241 13.678V12.46L55.5921 12.586C55.5921 12.7073 55.5268 12.8567 55.3961 13.034C55.2748 13.202 55.1021 13.37 54.8781 13.538C54.6635 13.706 54.4068 13.8507 54.1081 13.972C53.8095 14.084 53.4921 14.14 53.1561 14.14C52.4935 14.14 51.8961 13.9767 51.3641 13.65C50.8321 13.314 50.4121 12.8567 50.1041 12.278C49.7961 11.69 49.6421 11.018 49.6421 10.262C49.6421 9.49667 49.7961 8.82467 50.1041 8.246C50.4121 7.658 50.8275 7.20067 51.3501 6.874C51.8728 6.538 52.4561 6.37 53.1001 6.37ZM53.3661 7.91C52.9461 7.91 52.5775 8.01267 52.2601 8.218C51.9428 8.42333 51.6955 8.70333 51.5181 9.058C51.3408 9.41267 51.2521 9.814 51.2521 10.262C51.2521 10.7007 51.3408 11.0973 51.5181 11.452C51.6955 11.8067 51.9428 12.0867 52.2601 12.292C52.5775 12.4973 52.9461 12.6 53.3661 12.6C53.7955 12.6 54.1688 12.4973 54.4861 12.292C54.8035 12.0867 55.0508 11.8067 55.2281 11.452C55.4055 11.0973 55.4941 10.7007 55.4941 10.262C55.4941 9.814 55.4055 9.41267 55.2281 9.058C55.0508 8.70333 54.8035 8.42333 54.4861 8.218C54.1688 8.01267 53.7955 7.91 53.3661 7.91ZM62.3144 14.14C61.5211 14.14 60.8304 13.9767 60.2424 13.65C59.6638 13.314 59.2158 12.8613 58.8984 12.292C58.5904 11.7227 58.4364 11.0787 58.4364 10.36C58.4364 9.52 58.6044 8.806 58.9404 8.218C59.2858 7.62067 59.7338 7.16333 60.2844 6.846C60.8351 6.52867 61.4184 6.37 62.0344 6.37C62.5104 6.37 62.9584 6.468 63.3784 6.664C63.8078 6.86 64.1858 7.13067 64.5124 7.476C64.8391 7.812 65.0958 8.204 65.2824 8.652C65.4784 9.1 65.5764 9.576 65.5764 10.08C65.5671 10.304 65.4784 10.486 65.3104 10.626C65.1424 10.766 64.9464 10.836 64.7224 10.836H59.3744L58.9544 9.436H64.0924L63.7844 9.716V9.338C63.7658 9.06733 63.6678 8.82467 63.4904 8.61C63.3224 8.39533 63.1078 8.22733 62.8464 8.106C62.5944 7.97533 62.3238 7.91 62.0344 7.91C61.7544 7.91 61.4931 7.94733 61.2504 8.022C61.0078 8.09667 60.7978 8.22267 60.6204 8.4C60.4431 8.57733 60.3031 8.81533 60.2004 9.114C60.0978 9.41267 60.0464 9.79067 60.0464 10.248C60.0464 10.752 60.1491 11.1813 60.3544 11.536C60.5691 11.8813 60.8398 12.1473 61.1664 12.334C61.5024 12.5113 61.8571 12.6 62.2304 12.6C62.5758 12.6 62.8511 12.572 63.0564 12.516C63.2618 12.46 63.4251 12.3947 63.5464 12.32C63.6771 12.236 63.7938 12.166 63.8964 12.11C64.0644 12.026 64.2231 11.984 64.3724 11.984C64.5778 11.984 64.7458 12.054 64.8764 12.194C65.0164 12.334 65.0864 12.4973 65.0864 12.684C65.0864 12.936 64.9558 13.1647 64.6944 13.37C64.4518 13.5753 64.1111 13.7573 63.6724 13.916C63.2338 14.0653 62.7811 14.14 62.3144 14.14ZM71.1882 6.37C71.8789 6.37 72.4016 6.51467 72.7562 6.804C73.1202 7.09333 73.3676 7.48067 73.4982 7.966C73.6382 8.442 73.7082 8.974 73.7082 9.562V13.146C73.7082 13.3887 73.6289 13.594 73.4702 13.762C73.3116 13.9207 73.1109 14 72.8682 14C72.6256 14 72.4249 13.9207 72.2662 13.762C72.1076 13.594 72.0282 13.3887 72.0282 13.146V9.562C72.0282 9.254 71.9862 8.97867 71.9022 8.736C71.8276 8.484 71.6876 8.28333 71.4822 8.134C71.2769 7.98467 70.9829 7.91 70.6002 7.91C70.2269 7.91 69.9096 7.98467 69.6482 8.134C69.3962 8.28333 69.2002 8.484 69.0602 8.736C68.9296 8.97867 68.8642 9.254 68.8642 9.562V13.146C68.8642 13.3887 68.7849 13.594 68.6262 13.762C68.4676 13.9207 68.2669 14 68.0242 14C67.7816 14 67.5809 13.9207 67.4222 13.762C67.2636 13.594 67.1842 13.3887 67.1842 13.146V7.364C67.1842 7.12133 67.2636 6.92067 67.4222 6.762C67.5809 6.594 67.7816 6.51 68.0242 6.51C68.2669 6.51 68.4676 6.594 68.6262 6.762C68.7849 6.92067 68.8642 7.12133 68.8642 7.364V7.966L68.6542 7.924C68.7382 7.76533 68.8596 7.59733 69.0182 7.42C69.1769 7.23333 69.3636 7.06067 69.5782 6.902C69.7929 6.74333 70.0356 6.61733 70.3062 6.524C70.5769 6.42133 70.8709 6.37 71.1882 6.37ZM78.9961 6.37C79.5281 6.37 79.9901 6.426 80.3821 6.538C80.7834 6.65 81.0914 6.80867 81.3061 7.014C81.5301 7.21 81.6421 7.448 81.6421 7.728C81.6421 7.91467 81.5861 8.092 81.4741 8.26C81.3621 8.41867 81.1988 8.498 80.9841 8.498C80.8348 8.498 80.7088 8.47933 80.6061 8.442C80.5128 8.39533 80.4288 8.33933 80.3541 8.274C80.2794 8.20867 80.1908 8.148 80.0881 8.092C79.9948 8.036 79.8501 7.994 79.6541 7.966C79.4674 7.92867 79.3274 7.91 79.2341 7.91C78.7581 7.91 78.3521 8.01267 78.0161 8.218C77.6894 8.42333 77.4374 8.70333 77.2601 9.058C77.0828 9.40333 76.9941 9.80467 76.9941 10.262C76.9941 10.71 77.0828 11.1113 77.2601 11.466C77.4468 11.8113 77.6988 12.0867 78.0161 12.292C78.3428 12.4973 78.7161 12.6 79.1361 12.6C79.3694 12.6 79.5701 12.586 79.7381 12.558C79.9061 12.53 80.0461 12.488 80.1581 12.432C80.2888 12.3573 80.4054 12.278 80.5081 12.194C80.6108 12.11 80.7648 12.068 80.9701 12.068C81.2128 12.068 81.3994 12.1473 81.5301 12.306C81.6608 12.4553 81.7261 12.642 81.7261 12.866C81.7261 13.0993 81.5954 13.314 81.3341 13.51C81.0728 13.6967 80.7274 13.8507 80.2981 13.972C79.8781 14.084 79.4208 14.14 78.9261 14.14C78.1888 14.14 77.5494 13.972 77.0081 13.636C76.4668 13.2907 76.0468 12.824 75.7481 12.236C75.4588 11.648 75.3141 10.99 75.3141 10.262C75.3141 9.49667 75.4681 8.82467 75.7761 8.246C76.0934 7.658 76.5274 7.20067 77.0781 6.874C77.6381 6.538 78.2774 6.37 78.9961 6.37ZM88.6355 6.51C88.8782 6.51 89.0789 6.594 89.2375 6.762C89.3962 6.92067 89.4755 7.12133 89.4755 7.364V13.314C89.4755 14.1727 89.3122 14.854 88.9855 15.358C88.6682 15.8713 88.2389 16.24 87.6975 16.464C87.1562 16.688 86.5495 16.8 85.8775 16.8C85.5789 16.8 85.2615 16.7767 84.9255 16.73C84.5895 16.6833 84.3142 16.6133 84.0995 16.52C83.8195 16.3987 83.6235 16.2447 83.5115 16.058C83.4089 15.8807 83.3902 15.6893 83.4555 15.484C83.5395 15.2133 83.6749 15.0267 83.8615 14.924C84.0482 14.8307 84.2442 14.8213 84.4495 14.896C84.5989 14.9427 84.7949 15.0127 85.0375 15.106C85.2802 15.2087 85.5602 15.26 85.8775 15.26C86.3069 15.26 86.6615 15.1993 86.9415 15.078C87.2309 14.966 87.4455 14.77 87.5855 14.49C87.7349 14.2193 87.8095 13.846 87.8095 13.37V12.432L88.1035 12.768C87.9449 13.076 87.7442 13.3327 87.5015 13.538C87.2682 13.734 86.9882 13.8833 86.6615 13.986C86.3349 14.0887 85.9615 14.14 85.5415 14.14C85.0469 14.14 84.6129 14.028 84.2395 13.804C83.8755 13.5707 83.5909 13.2533 83.3855 12.852C83.1802 12.4413 83.0775 11.9747 83.0775 11.452V7.364C83.0775 7.12133 83.1569 6.92067 83.3155 6.762C83.4742 6.594 83.6749 6.51 83.9175 6.51C84.1602 6.51 84.3609 6.594 84.5195 6.762C84.6782 6.92067 84.7575 7.12133 84.7575 7.364V10.948C84.7575 11.5547 84.8882 11.984 85.1495 12.236C85.4202 12.4787 85.7935 12.6 86.2695 12.6C86.5962 12.6 86.8715 12.5393 87.0955 12.418C87.3195 12.2873 87.4922 12.1007 87.6135 11.858C87.7349 11.606 87.7955 11.3027 87.7955 10.948V7.364C87.7955 7.12133 87.8749 6.92067 88.0335 6.762C88.1922 6.594 88.3929 6.51 88.6355 6.51Z" fill="#E2E2E2"/>
<path d="M47.2607 22.224C47.3567 22.288 47.4127 22.372 47.4287 22.476C47.4447 22.572 47.4207 22.668 47.3567 22.764C47.3007 22.836 47.2287 22.876 47.1407 22.884C47.0527 22.892 46.9687 22.876 46.8887 22.836C46.5847 22.636 46.2567 22.48 45.9047 22.368C45.5607 22.256 45.1887 22.2 44.7887 22.2C44.3007 22.2 43.8447 22.288 43.4207 22.464C43.0047 22.632 42.6407 22.88 42.3287 23.208C42.0167 23.528 41.7727 23.908 41.5967 24.348C41.4287 24.788 41.3447 25.272 41.3447 25.8C41.3447 26.344 41.4327 26.84 41.6087 27.288C41.7847 27.728 42.0287 28.108 42.3407 28.428C42.6607 28.748 43.0287 28.992 43.4447 29.16C43.8607 29.328 44.3087 29.412 44.7887 29.412C45.1807 29.412 45.5487 29.356 45.8927 29.244C46.2447 29.132 46.5727 28.98 46.8767 28.788C46.9567 28.74 47.0407 28.724 47.1287 28.74C47.2247 28.748 47.3007 28.792 47.3567 28.872C47.4287 28.96 47.4527 29.056 47.4287 29.16C47.4127 29.256 47.3607 29.332 47.2727 29.388C47.0727 29.516 46.8367 29.636 46.5647 29.748C46.2927 29.86 46.0047 29.948 45.7007 30.012C45.3967 30.084 45.0927 30.12 44.7887 30.12C44.2127 30.12 43.6727 30.016 43.1687 29.808C42.6647 29.6 42.2167 29.308 41.8247 28.932C41.4327 28.548 41.1247 28.092 40.9007 27.564C40.6847 27.036 40.5767 26.448 40.5767 25.8C40.5767 25.176 40.6847 24.604 40.9007 24.084C41.1167 23.556 41.4167 23.1 41.8007 22.716C42.1847 22.332 42.6327 22.032 43.1447 21.816C43.6567 21.6 44.2047 21.492 44.7887 21.492C45.2447 21.492 45.6847 21.556 46.1087 21.684C46.5327 21.812 46.9167 21.992 47.2607 22.224ZM49.1486 30C49.0366 30 48.9486 29.964 48.8846 29.892C48.8206 29.82 48.7886 29.736 48.7886 29.64V24.264C48.7886 24.168 48.8206 24.084 48.8846 24.012C48.9566 23.94 49.0446 23.904 49.1486 23.904C49.2526 23.904 49.3366 23.94 49.4006 24.012C49.4726 24.084 49.5086 24.168 49.5086 24.264V26.064L49.3286 26.1C49.3526 25.82 49.4206 25.544 49.5326 25.272C49.6526 24.992 49.8126 24.736 50.0126 24.504C50.2126 24.272 50.4486 24.084 50.7206 23.94C51.0006 23.796 51.3126 23.724 51.6566 23.724C51.8006 23.724 51.9406 23.756 52.0766 23.82C52.2126 23.876 52.2806 23.972 52.2806 24.108C52.2806 24.228 52.2486 24.32 52.1846 24.384C52.1206 24.448 52.0446 24.48 51.9566 24.48C51.8846 24.48 51.8046 24.46 51.7166 24.42C51.6366 24.38 51.5286 24.36 51.3926 24.36C51.1686 24.36 50.9446 24.428 50.7206 24.564C50.4966 24.692 50.2926 24.868 50.1086 25.092C49.9246 25.316 49.7766 25.568 49.6646 25.848C49.5606 26.12 49.5086 26.396 49.5086 26.676V29.64C49.5086 29.736 49.4726 29.82 49.4006 29.892C49.3286 29.964 49.2446 30 49.1486 30ZM55.9082 30.12C55.2922 30.12 54.7482 29.988 54.2762 29.724C53.8042 29.46 53.4362 29.092 53.1722 28.62C52.9082 28.148 52.7762 27.596 52.7762 26.964C52.7762 26.284 52.9082 25.704 53.1722 25.224C53.4442 24.744 53.7922 24.376 54.2162 24.12C54.6482 23.856 55.1042 23.724 55.5842 23.724C55.9362 23.724 56.2762 23.788 56.6042 23.916C56.9402 24.036 57.2362 24.22 57.4922 24.468C57.7562 24.708 57.9642 25.004 58.1162 25.356C58.2762 25.708 58.3642 26.116 58.3802 26.58C58.3722 26.676 58.3322 26.76 58.2602 26.832C58.1882 26.896 58.1042 26.928 58.0082 26.928H53.1962L53.0522 26.28H57.7802L57.6242 26.424V26.184C57.5922 25.808 57.4722 25.488 57.2642 25.224C57.0562 24.96 56.8042 24.76 56.5082 24.624C56.2122 24.488 55.9042 24.42 55.5842 24.42C55.3442 24.42 55.0962 24.468 54.8402 24.564C54.5922 24.66 54.3642 24.812 54.1562 25.02C53.9562 25.22 53.7922 25.48 53.6642 25.8C53.5362 26.112 53.4722 26.484 53.4722 26.916C53.4722 27.388 53.5682 27.816 53.7602 28.2C53.9522 28.584 54.2282 28.888 54.5882 29.112C54.9562 29.336 55.3922 29.448 55.8962 29.448C56.1762 29.448 56.4282 29.408 56.6522 29.328C56.8762 29.248 57.0722 29.144 57.2402 29.016C57.4082 28.88 57.5482 28.74 57.6602 28.596C57.7482 28.524 57.8362 28.488 57.9242 28.488C58.0042 28.488 58.0722 28.52 58.1282 28.584C58.1922 28.648 58.2242 28.72 58.2242 28.8C58.2242 28.896 58.1842 28.98 58.1042 29.052C57.8642 29.34 57.5522 29.592 57.1682 29.808C56.7842 30.016 56.3642 30.12 55.9082 30.12ZM64.9963 23.868C65.1003 23.868 65.1843 23.904 65.2483 23.976C65.3203 24.048 65.3563 24.136 65.3563 24.24V29.64C65.3563 29.736 65.3203 29.82 65.2483 29.892C65.1763 29.964 65.0923 30 64.9963 30C64.8923 30 64.8043 29.964 64.7323 29.892C64.6683 29.82 64.6363 29.736 64.6363 29.64V28.212L64.8403 28.116C64.8403 28.34 64.7763 28.568 64.6483 28.8C64.5283 29.032 64.3603 29.248 64.1443 29.448C63.9283 29.648 63.6723 29.812 63.3763 29.94C63.0883 30.06 62.7763 30.12 62.4403 30.12C61.8963 30.12 61.4083 29.98 60.9763 29.7C60.5523 29.42 60.2163 29.036 59.9683 28.548C59.7283 28.06 59.6083 27.512 59.6083 26.904C59.6083 26.28 59.7323 25.732 59.9803 25.26C60.2283 24.78 60.5643 24.404 60.9883 24.132C61.4123 23.86 61.8923 23.724 62.4283 23.724C62.7723 23.724 63.0923 23.784 63.3883 23.904C63.6923 24.024 63.9563 24.188 64.1803 24.396C64.4043 24.604 64.5763 24.844 64.6963 25.116C64.8243 25.38 64.8883 25.656 64.8883 25.944L64.6363 25.764V24.24C64.6363 24.136 64.6683 24.048 64.7323 23.976C64.8043 23.904 64.8923 23.868 64.9963 23.868ZM62.5003 29.448C62.9243 29.448 63.3003 29.34 63.6283 29.124C63.9563 28.9 64.2123 28.596 64.3963 28.212C64.5883 27.82 64.6843 27.384 64.6843 26.904C64.6843 26.432 64.5883 26.008 64.3963 25.632C64.2123 25.256 63.9563 24.956 63.6283 24.732C63.3003 24.508 62.9243 24.396 62.5003 24.396C62.0843 24.396 61.7083 24.504 61.3723 24.72C61.0443 24.936 60.7843 25.232 60.5923 25.608C60.4083 25.984 60.3163 26.416 60.3163 26.904C60.3163 27.384 60.4083 27.82 60.5923 28.212C60.7843 28.596 61.0443 28.9 61.3723 29.124C61.7003 29.34 62.0763 29.448 62.5003 29.448ZM66.8496 23.892H69.6456C69.7416 23.892 69.8216 23.928 69.8856 24C69.9496 24.064 69.9816 24.144 69.9816 24.24C69.9816 24.328 69.9496 24.404 69.8856 24.468C69.8216 24.532 69.7416 24.564 69.6456 24.564H66.8496C66.7536 24.564 66.6696 24.532 66.5976 24.468C66.5336 24.396 66.5016 24.316 66.5016 24.228C66.5016 24.132 66.5336 24.052 66.5976 23.988C66.6696 23.924 66.7536 23.892 66.8496 23.892ZM68.0856 22.2C68.1896 22.2 68.2736 22.236 68.3376 22.308C68.4096 22.38 68.4456 22.464 68.4456 22.56V28.584C68.4456 28.808 68.4736 28.976 68.5296 29.088C68.5936 29.2 68.6736 29.276 68.7696 29.316C68.8656 29.348 68.9616 29.364 69.0576 29.364C69.1216 29.364 69.1776 29.356 69.2256 29.34C69.2816 29.316 69.3416 29.304 69.4056 29.304C69.4776 29.304 69.5376 29.332 69.5856 29.388C69.6416 29.444 69.6696 29.516 69.6696 29.604C69.6696 29.716 69.6056 29.812 69.4776 29.892C69.3496 29.964 69.1976 30 69.0216 30C68.9496 30 68.8416 29.996 68.6976 29.988C68.5536 29.972 68.4056 29.928 68.2536 29.856C68.1016 29.776 67.9736 29.64 67.8696 29.448C67.7736 29.256 67.7256 28.98 67.7256 28.62V22.56C67.7256 22.464 67.7576 22.38 67.8216 22.308C67.8936 22.236 67.9816 22.2 68.0856 22.2ZM72.008 29.64C72.008 29.736 71.972 29.82 71.9 29.892C71.828 29.964 71.744 30 71.648 30C71.544 30 71.456 29.964 71.384 29.892C71.32 29.82 71.288 29.736 71.288 29.64V24.12C71.288 24.024 71.32 23.94 71.384 23.868C71.456 23.796 71.544 23.76 71.648 23.76C71.752 23.76 71.836 23.796 71.9 23.868C71.972 23.94 72.008 24.024 72.008 24.12V29.64ZM71.648 22.956C71.48 22.956 71.352 22.92 71.264 22.848C71.184 22.768 71.144 22.656 71.144 22.512V22.392C71.144 22.248 71.188 22.14 71.276 22.068C71.372 21.988 71.5 21.948 71.66 21.948C71.812 21.948 71.928 21.988 72.008 22.068C72.096 22.14 72.14 22.248 72.14 22.392V22.512C72.14 22.656 72.096 22.768 72.008 22.848C71.928 22.92 71.808 22.956 71.648 22.956ZM73.7344 23.736C73.7984 23.736 73.8624 23.756 73.9264 23.796C73.9904 23.836 74.0384 23.896 74.0704 23.976L76.1704 28.968L76.0144 29.064L78.1624 23.976C78.2264 23.816 78.3424 23.74 78.5104 23.748C78.5904 23.748 78.6664 23.776 78.7384 23.832C78.8104 23.88 78.8464 23.952 78.8464 24.048C78.8464 24.096 78.8384 24.136 78.8224 24.168C78.8144 24.192 78.8064 24.22 78.7984 24.252L76.4464 29.772C76.3824 29.916 76.2744 29.992 76.1224 30C76.0504 30.008 75.9784 29.992 75.9064 29.952C75.8424 29.904 75.7944 29.844 75.7624 29.772L73.3984 24.252C73.3904 24.236 73.3824 24.212 73.3744 24.18C73.3664 24.148 73.3624 24.116 73.3624 24.084C73.3624 23.996 73.3944 23.916 73.4584 23.844C73.5224 23.772 73.6144 23.736 73.7344 23.736ZM82.9434 30.12C82.3274 30.12 81.7834 29.988 81.3114 29.724C80.8394 29.46 80.4714 29.092 80.2074 28.62C79.9434 28.148 79.8114 27.596 79.8114 26.964C79.8114 26.284 79.9434 25.704 80.2074 25.224C80.4794 24.744 80.8274 24.376 81.2514 24.12C81.6834 23.856 82.1394 23.724 82.6194 23.724C82.9714 23.724 83.3114 23.788 83.6394 23.916C83.9754 24.036 84.2714 24.22 84.5274 24.468C84.7914 24.708 84.9994 25.004 85.1514 25.356C85.3114 25.708 85.3994 26.116 85.4154 26.58C85.4074 26.676 85.3674 26.76 85.2954 26.832C85.2234 26.896 85.1394 26.928 85.0434 26.928H80.2314L80.0874 26.28H84.8154L84.6594 26.424V26.184C84.6274 25.808 84.5074 25.488 84.2994 25.224C84.0914 24.96 83.8394 24.76 83.5434 24.624C83.2474 24.488 82.9394 24.42 82.6194 24.42C82.3794 24.42 82.1314 24.468 81.8754 24.564C81.6274 24.66 81.3994 24.812 81.1914 25.02C80.9914 25.22 80.8274 25.48 80.6994 25.8C80.5714 26.112 80.5074 26.484 80.5074 26.916C80.5074 27.388 80.6034 27.816 80.7954 28.2C80.9874 28.584 81.2634 28.888 81.6234 29.112C81.9914 29.336 82.4274 29.448 82.9314 29.448C83.2114 29.448 83.4634 29.408 83.6874 29.328C83.9114 29.248 84.1074 29.144 84.2754 29.016C84.4434 28.88 84.5834 28.74 84.6954 28.596C84.7834 28.524 84.8714 28.488 84.9594 28.488C85.0394 28.488 85.1074 28.52 85.1634 28.584C85.2274 28.648 85.2594 28.72 85.2594 28.8C85.2594 28.896 85.2194 28.98 85.1394 29.052C84.8994 29.34 84.5874 29.592 84.2034 29.808C83.8194 30.016 83.3994 30.12 82.9434 30.12Z" fill="#E2E2E2"/>
</svg>
